HIERARCHY
ROOT Hips
{
  OFFSET 0 0 0
  CHANNELS 6 Xposition Yposition Zposition Zrotation Yrotation Xrotation
  JOINT LeftThigh
  {
    OFFSET 8.409438 0 -5.917753
    CHANNELS 3 Zrotation Yrotation Xrotation
    JOINT LeftLeg
    {
      OFFSET 0 0 -42.358652
      CHANNELS 3 Zrotation Yrotation Xrotation
      JOINT LeftFoot
      {
        OFFSET 0 0 -39.357303
        CHANNELS 3 Zrotation Yrotation Xrotation
      }
    }
  }
  JOINT RightThigh
  {
    OFFSET -8.409438 0 -5.917753
    CHANNELS 3 Zrotation Yrotation Xrotation
    JOINT RightLeg
    {
      OFFSET 0 0 -42.358652
      CHANNELS 3 Zrotation Yrotation Xrotation
      JOINT RightFoot
      {
        OFFSET 0 0 -39.357303
        CHANNELS 3 Zrotation Yrotation Xrotation
      }
    }
  }
  JOINT SpineLow
  {
    OFFSET 0 0 4.719101
    CHANNELS 3 Zrotation Yrotation Xrotation
    JOINT SpineMid
    {
      OFFSET 0 0 12.899191
      CHANNELS 3 Zrotation Yrotation Xrotation
      JOINT Chest
      {
        OFFSET 0 0 12.899191
        CHANNELS 3 Zrotation Yrotation Xrotation
        JOINT LeftShoulder
        {
          OFFSET 7.550562 1.41573 9.438202
          CHANNELS 3 Zrotation Yrotation Xrotation
          JOINT LeftArm
          {
            OFFSET 9.155056 0 4.247191
            CHANNELS 3 Zrotation Yrotation Xrotation
            JOINT LeftForearm
            {
              OFFSET 0 0 25.771955
              CHANNELS 3 Zrotation Yrotation Xrotation
              JOINT LeftHand
              {
                OFFSET 0 0 25.197169
                CHANNELS 3 Zrotation Yrotation Xrotation
              }
            }
          }
        }
        JOINT RightShoulder
        {
          OFFSET -7.550562 1.41573 9.438202
          CHANNELS 3 Zrotation Yrotation Xrotation
          JOINT RightArm
          {
            OFFSET -9.155056 0 4.247191
            CHANNELS 3 Zrotation Yrotation Xrotation
            JOINT RightForearm
            {
              OFFSET 0 0 -25.771955
              CHANNELS 3 Zrotation Yrotation Xrotation
              JOINT RightHand
              {
                OFFSET 0 0 -25.197169
                CHANNELS 3 Zrotation Yrotation Xrotation
              }
            }
          }
        }
        JOINT Neck
        {
          OFFSET 0 0 15.101124
          CHANNELS 3 Zrotation Yrotation Xrotation
          JOINT Head
          {
            OFFSET 0 0 11.325843
            CHANNELS 3 Zrotation Yrotation Xrotation
            End Site
            {
              OFFSET 0 0 14.157303
            }
          }
        }
      }
    }
  }
}
MOTION
Frames: 13
Frame Time: 0.0
0.0  93.25843  0.0  -5.167783  -39.253638  -89.472282  35.041502  -21.67963  -48.047174  -1.273713  3.780189  44.00135  6.982355  0.203944  4.689657  -20.292588  20.597092  -6.58995  -6.339148  11.535501  25.775778  6.090567  2.61246  -0.16616  3.596869  0.014187  1.15443  9.829792  -0.132725  3.14961  9.829793  -0.132725  3.14961  -26.951018  12.664641  1.596862  -113.69776  65.216082  -55.431619  -49.573993  3.569436  73.53494  70.788724  -10.427507  -5.175958  -4.387222  -13.712942  19.618655  110.046292  29.330227  46.741653  -6.803049  -11.130794  -118.425198  75.180204  -1.679605  -14.769781  10.448662  2.464016  2.898337  7.823811  1.898269  2.132002  
0.0  93.25843  0.0  -5.458519  -38.31994  -89.225112  35.385747  -21.428589  -48.410336  -1.274007  4.002212  43.628541  6.881239  0.191548  4.616278  -19.751867  20.478908  -5.549533  -6.988047  11.191822  25.046463  5.916756  2.68974  -0.245105  3.53019  -0.083712  1.066211  9.643671  -0.383583  2.895077  9.64367  -0.383583  2.895077  -27.271855  13.345525  1.922963  -114.492276  65.435638  -55.963864  -49.692128  3.428821  72.759303  70.819903  -10.535226  -5.493044  -4.554181  -13.435731  19.844004  109.078311  30.330773  45.95175  -7.049717  -10.445746  -119.201585  71.976579  -1.787486  -14.048156  10.194603  2.483806  3.321873  7.63152  1.918964  2.450363  
0.0  93.25843  0.0  -5.673249  -37.469175  -88.731012  35.392836  -20.983031  -49.097124  -1.078878  4.187941  43.370686  7.034081  0.096961  4.729486  -18.014387  20.071109  -4.34002  -8.037282  10.668066  24.313267  4.959982  2.7327  -0.301783  3.359719  -0.22068  0.943071  9.173583  -0.732587  2.541553  9.173584  -0.732587  2.541553  -26.675863  14.459026  2.127395  -115.245846  65.542423  -56.244055  -49.722873  3.402838  71.699619  70.766423  -10.733819  -5.687645  -3.775517  -12.797096  20.008094  108.256506  31.208611  45.068778  -6.838046  -10.59789  -120.009841  69.313641  -1.663031  -13.477969  10.366375  2.776921  3.763832  7.756501  2.147355  2.776129  
0.0  93.25843  0.0  -5.782197  -36.774711  -88.122983  35.741956  -20.348217  -49.674976  -0.980108  4.306164  43.005399  7.023889  0.127284  4.774275  -16.214898  19.562397  -3.331744  -9.037242  10.169199  23.471834  3.965928  2.886145  -0.310845  3.381784  -0.273868  0.807233  9.233914  -0.859531  2.1634  9.233915  -0.859531  2.163401  -27.046833  15.139449  2.463267  -115.69991  65.628561  -56.170841  -49.785863  3.541273  70.621107  70.893113  -10.833586  -5.762597  -3.764914  -12.636066  20.011157  107.673672  32.02121  44.088719  -6.266443  -11.678452  -120.9131  67.769182  -1.453771  -12.922937  9.956147  2.851465  4.000173  7.447277  2.204561  2.953949  
0.0  93.25843  0.0  -5.720302  -36.229357  -87.622908  35.738261  -19.56632  -50.174782  -0.824334  4.317005  42.784864  7.193933  0.132815  4.872621  -14.767923  19.241677  -2.512358  -9.849868  9.756857  22.487773  3.187939  2.983886  -0.246192  3.441128  -0.274029  0.671002  9.398006  -0.84256  1.791002  9.398007  -0.84256  1.791002  -26.781454  15.728586  2.961555  -116.548582  66.015652  -55.941897  -49.819519  3.516886  69.643022  70.889458  -10.863947  -5.741013  -3.629441  -12.643725  20.043443  107.369218  32.909745  42.986733  -5.797453  -13.198745  -121.695474  67.113297  -1.146334  -12.276837  9.521737  2.82303  4.15975  7.121028  2.182819  3.07605  
0.0  93.25843  0.0  -5.54652  -35.775177  -87.237027  35.861473  -18.781574  -50.424672  -0.723883  4.374372  42.570155  7.088815  0.174374  4.824263  -13.967704  19.161417  -1.895704  -10.370813  9.400283  21.380762  2.695626  3.047996  -0.166633  3.581082  -0.192947  0.576287  9.783546  -0.611236  1.542769  9.783546  -0.611236  1.542769  -27.432384  15.615926  3.116449  -118.028889  66.622898  -56.79806  -49.750557  3.117873  68.901074  70.791319  -10.770301  -5.691882  -3.601094  -13.099512  19.828154  107.19266  34.00281  41.736402  -5.894041  -14.465838  -122.183014  66.724206  -0.925149  -11.446241  8.867628  2.590597  4.079331  6.632642  2.002736  3.022118  
0.0  93.25843  0.0  -4.795316  -36.55959  -87.442498  36.79719  -17.80819  -50.081158  -0.679217  4.576962  42.318978  7.125632  0.196457  4.867146  -12.631973  19.881469  -1.469004  -10.556647  9.006153  20.293558  2.413049  3.04253  -0.065957  3.876981  -0.033633  0.557468  10.59594  -0.180854  1.513908  10.59594  -0.180854  1.513908  -27.43433  15.560829  3.022994  -120.763844  67.614995  -58.500084  -49.576741  2.492378  68.418085  70.597074  -10.570462  -5.650813  -3.39815  -13.677959  19.309427  107.28453  35.040935  40.474139  -6.729058  -15.218099  -122.312463  66.212194  -0.909589  -10.465545  8.262856  2.336786  3.91401  6.181615  1.805982  2.904119  
0.0  93.25843  0.0  -4.44471  -36.255765  -87.344959  36.513442  -17.271573  -49.949673  -0.460737  4.764904  42.212337  7.125582  0.239622  4.799366  -12.831659  20.454281  -1.231326  -10.510082  8.489487  19.199146  2.185858  3.027071  0.088929  4.024534  0.046071  0.461588  11.001082  0.048866  1.265344  11.001081  0.048866  1.265343  -27.836993  15.483882  2.684027  -125.7802  68.837183  -62.913696  -49.295937  1.751454  68.237421  70.426835  -10.28015  -5.772888  -2.988081  -14.206057  19.105045  106.990573  36.366096  39.128589  -7.861143  -15.718289  -122.247774  65.66961  -0.929336  -9.539312  7.674693  2.12666  4.025505  5.741645  1.645936  2.992624  
0.0  93.25843  0.0  -4.035875  -36.035176  -87.373133  35.996097  -16.953653  -49.614216  -0.053815  5.042018  42.141537  7.191031  0.285072  4.717051  -13.079136  21.235775  -0.976557  -10.408248  7.854759  18.090081  1.948423  3.031048  0.267232  4.202789  0.09785  0.349131  11.489076  0.205989  0.967976  11.489076  0.205989  0.967975  -28.065442  15.490887  2.781974  -132.928121  69.756226  -69.358751  -49.18169  1.098461  68.34508  70.38555  -9.97619  -5.898735  -2.756046  -14.710659  18.894315  106.720661  37.577535  37.93193  -9.050569  -16.176583  -122.032721  65.064683  -0.858854  -8.943017  6.759421  1.874395  4.229154  5.056429  1.452863  3.151302  
0.0  93.25843  0.0  -3.609367  -35.694843  -87.475977  35.116498  -16.832379  -49.079808  0.501053  5.40602  42.062433  7.282508  0.305634  4.586157  -13.29101  22.080533  -0.559227  -10.490431  7.202308  16.909862  1.72365  3.042464  0.449735  4.382558  0.138062  0.226927  11.980553  0.334925  0.642908  11.980553  0.334925  0.642908  -28.236207  15.741992  3.353782  -141.185146  70.31794  -77.128119  -49.151307  0.659208  68.779335  70.433663  -9.757057  -5.929772  -2.474384  -15.174519  18.791166  106.26085  38.969923  36.716856  -10.192464  -16.769976  -121.629203  64.373236  -0.767438  -8.768361  6.064836  1.829028  4.692815  4.534511  1.418603  3.501566  
0.0  93.25843  0.0  -3.138429  -35.338935  -87.695773  33.975964  -16.832563  -48.358878  1.247549  5.785145  42.004536  7.54856  0.294918  4.426764  -13.372445  23.030794  0.007327  -10.716777  6.577324  15.719814  1.515134  3.033456  0.619043  4.562192  0.176211  0.108828  12.471245  0.459209  0.329419  12.471245  0.459209  0.329419  -28.141842  16.052522  3.435416  -151.263003  70.306243  -87.283479  -48.624821  0.812321  69.304186  70.513109  -9.554173  -6.078565  -2.278954  -15.764774  18.579635  105.835344  40.289183  35.60672  -11.04989  -17.619533  -121.058431  63.736309  -0.775324  -8.818328  5.219474  1.738157  5.158607  3.899961  1.347903  3.854145  
0.0  93.25843  0.0  -2.604281  -34.904233  -88.062269  32.756984  -16.774958  -47.332506  2.039008  6.017049  41.800767  7.796506  0.306569  4.281292  -13.519432  24.149528  0.652319  -10.944562  5.984908  14.575807  1.300512  3.003734  0.817561  4.760102  0.227886  0.029122  13.011881  0.614419  0.123981  13.011881  0.614419  0.123981  -27.952772  16.014922  3.370343  -160.70702  69.051646  -96.994056  -47.587382  1.489486  69.508521  70.447199  -9.318918  -6.521625  -2.037814  -16.302669  18.183939  105.045272  41.804514  34.297626  -11.549518  -18.759648  -120.345885  63.132447  -0.896802  -8.986255  4.454872  1.677171  5.637832  3.325776  1.299186  4.21611  
0.0  93.25843  0.0  -1.870626  -34.599941  -88.697089  31.770717  -16.420941  -45.917075  2.602974  6.237755  41.339042  8.105169  0.193504  4.150797  -13.561828  25.556139  1.35765  -11.062281  5.444194  13.527924  1.061508  2.97244  1.045418  4.96164  0.263852  -0.04887  13.562114  0.727725  -0.078967  13.562114  0.727725  -0.078967  -27.543116  16.133352  3.566686  -168.765306  66.948675  -105.331842  -46.551282  2.486603  69.403311  70.022937  -9.154571  -7.175647  -1.658806  -16.723528  17.902553  104.157013  43.360165  33.067262  -11.789859  -20.229867  -119.493397  62.597109  -0.987679  -9.152905  3.730486  1.650192  6.247884  2.781142  1.275995  4.675722  
